<?xml version="1.0" encoding="UTF-8"?>
<svg id="Ebene_1" data-name="Ebene 1" xmlns="http://www.w3.org/2000/svg" width="306.829mm" height="230.399mm" viewBox="0 0 869.751 653.101">
  <defs>
    <style>
      .cls-1 {
        stroke: #000;
      }

      .cls-1, .cls-2 {
        fill: none;
        stroke-linecap: round;
        stroke-linejoin: round;
      }

      .cls-2 {
        stroke: red;
        stroke-width: .01px;
      }

      .cls-3 {
        stroke-width: 0px;
      }
    </style>
  </defs>
  <polyline class="cls-2" points="623.557 178.587 613.068 178.587 613.068 170.367 634.045 170.367 634.045 178.587 623.557 178.587"/>
  <path class="cls-2" d="m601.588,161.721h164.41c4.503,0,8.926-1.185,12.826-3.437,3.9-2.251,7.139-5.49,9.39-9.39,2.252-3.899,3.437-8.323,3.437-12.826V51.028c0-4.503-1.185-8.927-3.437-12.827-2.251-3.899-5.49-7.138-9.39-9.389-3.9-2.252-8.323-3.437-12.826-3.437h-164.41c-4.503,0-8.927,1.185-12.827,3.437-3.9,2.251-7.138,5.49-9.39,9.389-2.251,3.9-3.436,8.324-3.436,12.827v85.04c0,4.503,1.185,8.927,3.436,12.826,2.252,3.9,5.49,7.139,9.39,9.39,3.9,2.252,8.324,3.437,12.827,3.437"/>
  <path class="cls-2" d="m600.415,32.461c-3.05,0-6.057.813-8.698,2.352-2.64,1.538-4.842,3.76-6.367,6.426-1.523,2.664-2.33,5.7-2.33,8.777v87.061c0,3.077.805,6.113,2.33,8.777,1.526,2.667,3.727,4.89,6.366,6.426,2.641,1.54,5.649,2.352,8.699,2.352h166.756c3.049,0,6.056-.813,8.695-2.351,2.643-1.54,4.844-3.761,6.368-6.426,1.525-2.665,2.331-5.7,2.331-8.778V50.018c0-3.078-.805-6.114-2.33-8.779s-3.726-4.886-6.367-6.424c-2.642-1.54-5.648-2.353-8.697-2.353h-166.756Z"/>
  <polyline class="cls-2" points="661.824 178.587 651.336 178.587 651.336 170.367 672.312 170.367 672.312 178.587 661.824 178.587"/>
  <polyline class="cls-2" points="705.761 178.587 695.273 178.587 695.273 170.367 716.249 170.367 716.249 178.587 705.761 178.587"/>
  <polyline class="cls-2" points="744.029 178.587 733.541 178.587 733.541 170.367 754.517 170.367 754.517 178.587 744.029 178.587"/>
  <polyline class="cls-2" points="808.375 112.823 808.375 123.312 800.155 123.312 800.155 102.335 808.375 102.335 808.375 112.823"/>
  <polyline class="cls-2" points="808.375 74.556 808.375 85.044 800.155 85.044 800.155 64.068 808.375 64.068 808.375 74.556"/>
  <polyline class="cls-2" points="741.194 8.792 751.683 8.792 751.683 17.012 730.706 17.012 730.706 8.792 741.194 8.792"/>
  <polyline class="cls-2" points="702.927 8.792 713.415 8.792 713.415 17.012 692.438 17.012 692.438 8.792 702.927 8.792"/>
  <polyline class="cls-2" points="664.659 8.792 675.147 8.792 675.147 17.012 654.171 17.012 654.171 8.792 664.659 8.792"/>
  <polyline class="cls-2" points="626.391 8.792 636.879 8.792 636.879 17.012 615.903 17.012 615.903 8.792 626.391 8.792"/>
  <polyline class="cls-2" points="559.21 74.556 559.21 64.068 567.431 64.068 567.431 85.044 559.21 85.044 559.21 74.556"/>
  <polyline class="cls-2" points="559.21 112.823 559.21 102.335 567.431 102.335 567.431 123.312 559.21 123.312 559.21 112.823"/>
  <g>
    <path class="cls-2" d="m601.588,187.375h164.41"/>
    <path class="cls-2" d="m765.998,187.375c8.981,0,17.804-2.365,25.582-6.855,7.778-4.491,14.237-10.95,18.728-18.728,4.491-7.778,6.855-16.601,6.855-25.583V51.17"/>
    <path class="cls-2" d="m817.163,51.17c0-8.981-2.364-17.805-6.855-25.583s-10.95-14.237-18.728-18.728C783.802,2.369,774.979.005,765.998.005h-164.41"/>
    <path class="cls-2" d="m601.588.005c-8.981,0-17.804,2.364-25.583,6.854-7.778,4.491-14.237,10.95-18.727,18.728-4.491,7.778-6.855,16.602-6.855,25.583v85.039"/>
    <path class="cls-2" d="m550.423,136.209c0,8.982,2.364,17.805,6.855,25.583,4.49,7.778,10.949,14.237,18.727,18.728,7.779,4.49,16.602,6.855,25.583,6.855"/>
  </g>
  <path class="cls-2" d="m601.588,17.012c-5.996,0-11.886,1.579-17.079,4.577-5.192,2.998-9.504,7.31-12.502,12.502-2.998,5.193-4.576,11.083-4.576,17.079,0-.078.063-.142.141-.142h-8.504c.079,0,.142.064.142.142,0-7.439,1.958-14.747,5.678-21.189,3.719-6.442,9.069-11.792,15.511-15.511,6.442-3.72,13.75-5.678,21.189-5.678-.078,0-.142-.063-.142-.142v8.504c0-.078.064-.142.142-.142"/>
  <path class="cls-2" d="m800.155,51.17c0-5.996-1.578-11.886-4.576-17.079-2.998-5.192-7.31-9.504-12.503-12.502-5.192-2.998-11.083-4.577-17.078-4.577.078,0,.141.064.141.142v-8.504c0,.079-.063.142-.141.142,7.438,0,14.746,1.958,21.188,5.678,6.443,3.719,11.792,9.069,15.512,15.511,3.719,6.442,5.677,13.75,5.677,21.189,0-.078.064-.142.142-.142h-8.504c.079,0,.142.064.142.142"/>
  <path class="cls-2" d="m765.998,170.367c5.995,0,11.886-1.579,17.078-4.576,5.193-2.998,9.505-7.31,12.503-12.503,2.998-5.193,4.576-11.083,4.576-17.079,0,.079-.063.142-.142.142h8.504c-.078,0-.142-.063-.142-.142,0,7.439-1.958,14.747-5.677,21.189-3.72,6.443-9.069,11.792-15.512,15.512-6.442,3.719-13.75,5.677-21.188,5.677.078,0,.141.064.141.142v-8.504c0,.078-.063.142-.141.142"/>
  <path class="cls-2" d="m567.431,136.209c0,5.996,1.578,11.886,4.576,17.079,2.998,5.193,7.31,9.505,12.502,12.503,5.193,2.997,11.083,4.576,17.079,4.576-.078,0-.142-.064-.142-.142v8.504c0-.078.064-.142.142-.142-7.439,0-14.747-1.958-21.189-5.677-6.442-3.72-11.792-9.069-15.511-15.512-3.72-6.442-5.678-13.75-5.678-21.189,0,.079-.063.142-.142.142h8.504c-.078,0-.141-.063-.141-.142"/>
  <g>
    <polyline class="cls-2" points="348.312 178.587 337.824 178.587 337.824 170.367 358.801 170.367 358.801 178.587 348.312 178.587"/>
    <polyline class="cls-2" points="386.58 178.587 376.092 178.587 376.092 170.367 397.068 170.367 397.068 178.587 386.58 178.587"/>
    <polyline class="cls-2" points="430.517 178.587 420.029 178.587 420.029 170.367 441.005 170.367 441.005 178.587 430.517 178.587"/>
    <polyline class="cls-2" points="468.785 178.587 458.297 178.587 458.297 170.367 479.273 170.367 479.273 178.587 468.785 178.587"/>
    <polyline class="cls-2" points="533.131 112.823 533.131 123.312 524.911 123.312 524.911 102.335 533.131 102.335 533.131 112.823"/>
    <polyline class="cls-2" points="533.131 74.556 533.131 85.044 524.911 85.044 524.911 64.068 533.131 64.068 533.131 74.556"/>
    <polyline class="cls-2" points="465.95 8.792 476.438 8.792 476.438 17.012 455.462 17.012 455.462 8.792 465.95 8.792"/>
    <polyline class="cls-2" points="427.683 8.792 438.171 8.792 438.171 17.012 417.194 17.012 417.194 8.792 427.683 8.792"/>
    <polyline class="cls-2" points="389.415 8.792 399.903 8.792 399.903 17.012 378.927 17.012 378.927 8.792 389.415 8.792"/>
    <polyline class="cls-2" points="351.147 8.792 361.635 8.792 361.635 17.012 340.659 17.012 340.659 8.792 351.147 8.792"/>
    <polyline class="cls-2" points="283.966 74.556 283.966 64.068 292.186 64.068 292.186 85.044 283.966 85.044 283.966 74.556"/>
    <polyline class="cls-2" points="283.966 112.823 283.966 102.335 292.186 102.335 292.186 123.312 283.966 123.312 283.966 112.823"/>
    <path class="cls-2" d="m326.344,17.012c-5.996,0-11.886,1.579-17.079,4.577-5.192,2.998-9.504,7.31-12.502,12.502-2.998,5.193-4.577,11.083-4.577,17.079,0-.078.064-.142.142-.142h-8.504c.079,0,.142.064.142.142,0-7.439,1.958-14.747,5.678-21.189,3.719-6.442,9.069-11.792,15.511-15.511,6.442-3.72,13.75-5.678,21.189-5.678-.078,0-.142-.063-.142-.142v8.504c0-.078.064-.142.142-.142"/>
    <path class="cls-2" d="m490.753,170.367c5.996,0,11.887-1.579,17.079-4.576,5.193-2.998,9.505-7.31,12.503-12.503,2.998-5.193,4.576-11.083,4.576-17.079,0,.079-.064.142-.142.142h8.504c-.078,0-.142-.063-.142-.142,0,7.439-1.958,14.747-5.677,21.189-3.72,6.443-9.069,11.792-15.512,15.512-6.442,3.719-13.75,5.677-21.189,5.677.079,0,.142.064.142.142v-8.504c0,.078-.063.142-.142.142"/>
    <path class="cls-2" d="m524.911,51.17c0-5.996-1.578-11.886-4.576-17.079-2.998-5.192-7.31-9.504-12.503-12.502-5.192-2.998-11.083-4.577-17.079-4.577.079,0,.142.064.142.142v-8.504c0,.079-.063.142-.142.142,7.439,0,14.747,1.958,21.189,5.678,6.443,3.719,11.792,9.069,15.512,15.511,3.719,6.442,5.677,13.75,5.677,21.189,0-.078.064-.142.142-.142h-8.504c.078,0,.142.064.142.142"/>
    <path class="cls-2" d="m292.186,136.209c0,5.996,1.579,11.886,4.577,17.079,2.998,5.193,7.31,9.505,12.502,12.503,5.193,2.997,11.083,4.576,17.079,4.576-.078,0-.142-.064-.142-.142v8.504c0-.078.064-.142.142-.142-7.439,0-14.747-1.958-21.189-5.677-6.442-3.72-11.792-9.069-15.511-15.512-3.72-6.442-5.678-13.75-5.678-21.189,0,.079-.063.142-.142.142h8.504c-.078,0-.142-.063-.142-.142"/>
  </g>
  <g>
    <path class="cls-2" d="m326.344,187.375h164.41"/>
    <path class="cls-2" d="m490.754,187.375c8.981,0,17.804-2.365,25.582-6.855,7.778-4.491,14.237-10.95,18.728-18.728,4.491-7.778,6.855-16.601,6.855-25.583V51.17"/>
    <path class="cls-2" d="m541.919,51.17c0-8.981-2.364-17.805-6.855-25.583s-10.95-14.237-18.728-18.728C508.558,2.369,499.735.005,490.754.005h-164.41"/>
    <path class="cls-2" d="m326.344.005c-8.981,0-17.804,2.364-25.583,6.854-7.778,4.491-14.237,10.95-18.727,18.728-4.491,7.778-6.855,16.602-6.855,25.583v85.039"/>
    <path class="cls-2" d="m275.179,136.209c0,8.982,2.364,17.805,6.855,25.583,4.49,7.778,10.949,14.237,18.727,18.728,7.779,4.49,16.602,6.855,25.583,6.855"/>
  </g>
  <path class="cls-3" d="m215.58,8.674c7.449,0,14.796,1.968,21.247,5.692,6.451,3.725,11.83,9.104,15.555,15.555,3.725,6.452,5.694,13.799,5.694,21.248v85.039c0,7.449-1.969,14.796-5.694,21.248-3.725,6.452-9.104,11.831-15.554,15.555-6.454,3.725-13.801,5.694-21.248,5.694H51.17c-7.447,0-14.794-1.969-21.247-5.694-6.453-3.724-11.831-9.103-15.555-15.555-3.725-6.452-5.694-13.799-5.694-21.248V51.17c0-7.449,1.969-14.796,5.694-21.249,3.725-6.452,9.103-11.83,15.554-15.554,6.452-3.724,13.799-5.693,21.248-5.693h164.41m0-3H51.17c-7.975,0-15.841,2.107-22.748,6.095-6.907,3.987-12.665,9.746-16.652,16.652-3.987,6.907-6.096,14.773-6.096,22.749v85.039c0,7.976,2.108,15.842,6.096,22.748,3.986,6.907,9.745,12.666,16.653,16.653,6.907,3.987,14.772,6.096,22.747,6.096h164.41c7.975,0,15.84-2.108,22.748-6.096,6.905-3.987,12.664-9.746,16.652-16.653,3.987-6.906,6.096-14.771,6.096-22.748V51.17c0-7.976-2.108-15.842-6.096-22.748-3.988-6.907-9.747-12.665-16.653-16.653-6.906-3.987-14.772-6.094-22.747-6.094h0Z"/>
  <g id="BLENDE_A">
    <g>
      <path class="cls-3" d="m144.251,152.164c5.322,0,9.651-4.33,9.651-9.651V40.445c0-5.321-4.329-9.65-9.65-9.65h-23.59c-5.321,0-9.651,4.33-9.651,9.651v4.909h1v-4.909c0-4.77,3.881-8.651,8.651-8.651h23.59c4.77,0,8.65,3.88,8.65,8.65v102.067c0,4.771-3.881,8.651-8.651,8.651h-23.589c-1.337,0-2.599-.314-3.731-.858l-.753.745c1.341.707,2.865,1.112,4.484,1.112h23.589Z"/>
      <rect class="cls-3" x="68.676" y="99.053" width="1" height="16.363"/>
      <path class="cls-3" d="m151.439,155.168c7.295,0,13.23-5.936,13.23-13.23V41.462c0-7.294-5.935-13.229-13.229-13.229h-37.783c-7.295,0-13.229,5.935-13.229,13.229v3.892h1v-3.892c0-6.743,5.486-12.229,12.229-12.229h37.783c6.743,0,12.229,5.486,12.229,12.229v100.476c0,6.744-5.486,12.23-12.23,12.23h-37.782c-1.192,0-2.342-.179-3.432-.499h-2.661c1.826.952,3.895,1.499,6.093,1.499h37.782Z"/>
      <path class="cls-3" d="m111.537,115.402c.161,0,.316.028.474.046v-16.394h-1v16.35h.526Z"/>
      <rect class="cls-3" x="58.093" y="99.053" width="1" height="16.387"/>
      <path class="cls-3" d="m48.509,117.635v-18.689c-.346-.068-.68-.169-1-.296v19.975l1-.99Z"/>
      <path class="cls-3" d="m48.536,45.457c.575-16.107,13.85-29.035,30.094-29.035h108.754c12.078,0,22.512,7.149,27.31,17.435h1.097c-4.866-10.852-15.764-18.435-28.408-18.435h-108.754c-16.895,0-30.678,13.534-31.102,30.328.323-.127.659-.227,1.007-.293Z"/>
      <path class="cls-3" d="m180.196,17.984h-94.56c-15.129,0-27.445,12.262-27.54,27.37h1c.094-14.556,11.961-26.37,26.54-26.37h94.56c10.711,0,19.954,6.381,24.144,15.538.293-.156.6-.287.921-.39-4.343-9.515-13.941-16.148-25.065-16.148Z"/>
      <rect class="cls-3" x="100.428" y="99.053" width="1" height="16.372"/>
      <path class="cls-3" d="m216.219,148.66h-.287c-4.016,11.919-15.291,20.529-28.547,20.529h-108.754c-11.313,0-21.185-6.272-26.334-15.52h-.24c-.329,0-.649-.049-.963-.122,5.22,9.885,15.601,16.642,27.536,16.642h108.754c13.837,0,25.588-9.079,29.623-21.591-.259.036-.521.062-.789.062Z"/>
      <path class="cls-3" d="m201.763,10.298H64.62c-21.107,0-38.279,17.172-38.279,38.279v89.34c0,21.107,17.172,38.279,38.279,38.279h137.142c21.107,0,38.279-17.172,38.279-38.279V48.577c0-21.107-17.172-38.279-38.278-38.279Zm37.278,127.619c0,20.556-16.724,37.279-37.279,37.279H64.62c-20.556,0-37.279-16.724-37.279-37.279V48.578c0-20.556,16.724-37.279,37.279-37.279h137.143c20.556,0,37.278,16.723,37.278,37.279v89.34Z"/>
      <path class="cls-3" d="m85.637,167.185h94.559c12.051,0,22.312-7.783,26.039-18.583-.337-.046-.665-.118-.981-.22-3.622,10.354-13.484,17.803-25.058,17.803h-94.559c-9.489,0-17.826-5.008-22.52-12.516h-1.171c4.805,8.084,13.624,13.516,23.691,13.516Z"/>
      <path class="cls-3" d="m194.573,12.86h-122.947c-19.134,0-34.701,15.567-34.701,34.701v90.932c0,19.134,15.567,34.7,34.701,34.7h122.947c19.135,0,34.701-15.566,34.701-34.7V47.561c0-19.134-15.566-34.7-34.701-34.7Zm33.701,125.632c0,18.582-15.118,33.7-33.701,33.7h-122.947c-18.583,0-33.701-15.118-33.701-33.7V47.561c0-18.583,15.118-33.701,33.701-33.701h122.947c18.583,0,33.701,15.118,33.701,33.7v90.932Z"/>
      <path class="cls-3" d="m208.951,7.736H57.615c-23.08,0-41.857,18.777-41.857,41.858v87.749c0,23.081,18.777,41.858,41.857,41.858h151.336c23.08,0,41.857-18.777,41.857-41.858V49.594c0-23.08-18.777-41.857-41.857-41.857Zm40.857,129.607c0,22.529-18.328,40.858-40.857,40.858H57.615c-22.529,0-40.857-18.329-40.857-40.858V49.594c0-22.529,18.328-40.858,40.857-40.858h151.336c22.529,0,40.857,18.329,40.857,40.857v87.75Z"/>
      <polygon class="cls-3" points="80.26 118.422 80.26 99.053 79.26 99.053 79.26 117.438 80.26 118.422"/>
      <path class="cls-3" d="m92.642,164.18h80.365c13.214,0,23.965-10.751,23.965-23.965V44.511c0-13.214-10.751-23.964-23.965-23.964h-80.365c-13.215,0-23.966,10.75-23.966,23.965v.843h1v-.843c0-12.663,10.303-22.965,22.966-22.965h80.365c12.663,0,22.965,10.302,22.965,22.964v95.704c0,12.663-10.302,22.965-22.965,22.965h-80.365c-7.641,0-14.417-3.754-18.595-9.511h-1.227c4.317,6.339,11.59,10.511,19.821,10.511Z"/>
      <path class="cls-3" d="m99.646,161.176h66.171c11.241,0,20.387-9.146,20.387-20.387V43.495c0-11.241-9.145-20.386-20.386-20.386h-66.172c-11.241,0-20.387,9.146-20.387,20.387v1.859h1v-1.859c0-10.69,8.697-19.387,19.387-19.387h66.172c10.689,0,19.386,8.697,19.386,19.386v97.294c0,10.689-8.697,19.387-19.387,19.387h-66.171c-7.44,0-13.905-4.219-17.154-10.384l-.522-.518-.039-.039-.552.547c3.331,6.738,10.257,11.394,18.268,11.394Z"/>
      <rect class="cls-3" x="89.844" y="99.053" width="1" height="16.396"/>
      <path class="cls-3" d="m158.629,158.172c9.268,0,16.808-7.54,16.808-16.809V42.479c0-9.268-7.54-16.808-16.808-16.808h-51.977c-9.269,0-16.809,7.54-16.809,16.808v2.875h1v-2.875c0-8.717,7.092-15.808,15.809-15.808h51.977c8.717,0,15.808,7.091,15.808,15.808v98.885c0,8.717-7.091,15.809-15.808,15.809h-51.977c-3.747,0-7.189-1.316-9.901-3.503h-1.511c3.001,2.785,7.005,4.503,11.412,4.503h51.977Z"/>
    </g>
    <path class="cls-2" d="m51.17,187.375h164.41c8.981,0,17.804-2.365,25.582-6.855,7.778-4.491,14.237-10.95,18.728-18.728,4.491-7.778,6.855-16.601,6.855-25.583V51.17c0-8.981-2.364-17.805-6.855-25.583s-10.95-14.237-18.728-18.728C233.384,2.369,224.561.005,215.58.005H51.17C42.189.005,33.366,2.369,25.588,6.859c-7.779,4.491-14.238,10.95-18.728,18.728C2.369,33.365.005,42.189.005,51.17v85.039c0,8.982,2.364,17.805,6.855,25.583,4.49,7.778,10.949,14.237,18.728,18.728,7.778,4.49,16.601,6.855,25.582,6.855"/>
    <g id="BOARD-CUTOUT-MASTER-NEW">
      <path class="cls-2" d="m159.873,82.4h103.472c2.345,0,4.249,1.904,4.249,4.249v9.219c0,2.345-1.903,4.248-4.248,4.248h-103.472c-2.345,0-4.248-1.903-4.248-4.248v-9.22c0-2.345,1.903-4.248,4.248-4.248Z" transform="translate(302.867 -120.351) rotate(90)"/>
      <path class="cls-2" d="m80.623,82.4h103.471c2.345,0,4.249,1.904,4.249,4.249v9.219c0,2.345-1.903,4.248-4.248,4.248h-103.472c-2.345,0-4.248-1.903-4.248-4.248v-9.219c0-2.345,1.904-4.249,4.249-4.249Z" transform="translate(223.617 -41.101) rotate(90)"/>
      <rect class="cls-2" x="58.112" y="34.004" width="50.865" height="76.401" rx="4.252" ry="4.252" transform="translate(155.749 -11.341) rotate(90)"/>
      <path class="cls-2" d="m52.058,152.252c-.74,0-1.436-.285-1.961-.805l-3.057-3.027c-.529-.523-.82-1.221-.82-1.962v-23.411c0-.743.292-1.44.821-1.963l3.442-3.408c.524-.518,1.218-.804,1.955-.806l23.024-.052c.747,0,1.443.286,1.968.805l3.403,3.37c.529.524.82,1.221.82,1.962v23.411c0,.731-.299,1.447-.821,1.963l-3.147,3.116c-.527.521-1.223.806-1.962.806h-23.664Z"/>
      <path class="cls-2" d="m88.138,152.252c-.74,0-1.436-.285-1.961-.805l-3.057-3.027c-.529-.524-.82-1.222-.82-1.962v-23.411c0-.742.292-1.438.82-1.962l3.443-3.409c.524-.518,1.218-.804,1.955-.806l23.024-.052c.747,0,1.443.286,1.968.805l3.403,3.37c.529.524.82,1.221.82,1.962v23.411c0,.731-.299,1.447-.821,1.963l-3.147,3.116c-.526.521-1.222.806-1.962.806h-23.665Z"/>
    </g>
    <g>
      <path class="cls-3" d="m216.219,149.16h-9.22c-3.4,0-6.166-2.766-6.166-6.166V39.523c0-3.4,2.766-6.166,6.166-6.166h9.22c3.4,0,6.166,2.766,6.166,6.166v103.471c0,3.4-2.766,6.166-6.166,6.166Zm-9.22-114.803c-2.849,0-5.166,2.317-5.166,5.166v103.471c0,2.849,2.317,5.166,5.166,5.166h9.22c2.849,0,5.166-2.317,5.166-5.166V39.523c0-2.848-2.317-5.166-5.166-5.166h-9.22Z"/>
      <path class="cls-3" d="m136.969,149.16h-9.22c-3.4,0-6.166-2.766-6.166-6.166v-44.996c-1.118.99-2.574,1.555-4.09,1.555H49.597c-3.402,0-6.17-2.768-6.17-6.169v-42.361c0-3.401,2.768-6.169,6.17-6.169h67.896c1.516,0,2.972.565,4.09,1.555v-6.887c0-3.4,2.766-6.166,6.166-6.166h9.22c3.4,0,6.166,2.766,6.166,6.166v103.471c0,3.4-2.766,6.166-6.166,6.166Zm-14.386-52.41v46.244c0,2.849,2.317,5.166,5.166,5.166h9.22c2.849,0,5.166-2.317,5.166-5.166V39.523c0-2.848-2.317-5.166-5.166-5.166h-9.22c-2.849,0-5.166,2.317-5.166,5.166v8.136c.007.072-.003.146-.028.216-.057.156-.188.273-.349.313-.151.039-.309.003-.43-.09-.047-.037-.086-.08-.116-.129-.974-1.324-2.528-2.114-4.167-2.114H49.597c-2.851,0-5.17,2.319-5.17,5.169v42.361c0,2.85,2.319,5.169,5.17,5.169h67.896c1.65,0,3.215-.801,4.187-2.142.164-.224.479-.273.698-.111.148.107.221.28.205.45Z"/>
      <path class="cls-1" d="m81.97,149.275l3.21,3.18c.792.783,1.843,1.215,2.958,1.215h23.665c1.115,0,2.166-.432,2.959-1.216l3.15-3.119c.786-.78,1.238-1.862,1.238-2.967v-23.412c0-1.106-.452-2.188-1.241-2.969l-3.403-3.37c-.792-.783-1.843-1.214-2.969-1.214l-23.021.052c-1.11.001-2.158.432-2.952,1.216l-3.532,3.496-3.607-3.549c-.792-.783-1.843-1.214-2.968-1.214l-23.021.052c-1.114.001-2.162.433-2.952,1.216l-3.441,3.406c-.789.781-1.242,1.863-1.242,2.971v23.411c0,1.107.453,2.19,1.241,2.97l3.058,3.027c.792.783,1.843,1.215,2.958,1.215h23.664c1.115,0,2.166-.432,2.959-1.216l3.25-3.218"/>
    </g>
  </g>
  <path class="cls-3" d="m485.793,26.658c16.642,0,30.181,13.539,30.181,30.181v73.701c0,16.642-13.539,30.181-30.181,30.181h-154.488c-16.642,0-30.181-13.539-30.181-30.181V56.84c0-16.642,13.539-30.181,30.181-30.181h154.488m0-1h-154.488c-17.15,0-31.181,14.032-31.181,31.181v73.701c0,17.15,14.031,31.181,31.181,31.181h154.488c17.15,0,31.181-14.031,31.181-31.181V56.84c0-17.15-14.031-31.181-31.181-31.181h0Z"/>
  <path class="cls-3" d="m485.793,30.91c14.297,0,25.929,11.632,25.929,25.929v73.701c0,14.297-11.632,25.929-25.929,25.929h-154.488c-14.297,0-25.929-11.632-25.929-25.929V56.84c0-14.297,11.632-25.929,25.929-25.929h154.488m0-1h-154.488c-14.811,0-26.929,12.118-26.929,26.929v73.701c0,14.811,12.118,26.929,26.929,26.929h154.488c14.811,0,26.929-12.118,26.929-26.929V56.84c0-14.811-12.118-26.929-26.929-26.929h0Z"/>
  <path class="cls-3" d="m485.793,35.162c11.953,0,21.677,9.724,21.677,21.677v73.701c0,11.953-9.724,21.677-21.677,21.677h-154.488c-11.953,0-21.677-9.724-21.677-21.677V56.84c0-11.953,9.724-21.677,21.677-21.677h154.488m0-1h-154.488c-12.472,0-22.677,10.205-22.677,22.677v73.701c0,12.472,10.205,22.677,22.677,22.677h154.488c12.472,0,22.677-10.205,22.677-22.677V56.84c0-12.472-10.205-22.677-22.677-22.677h0Z"/>
  <path class="cls-3" d="m389.832,39.414v108.551h-58.528c-9.608,0-17.425-7.817-17.425-17.425V56.84c0-9.608,7.817-17.425,17.425-17.425h58.528m1-1h-59.528c-10.134,0-18.425,8.291-18.425,18.425v73.701c0,10.134,8.291,18.425,18.425,18.425h59.528V38.414h0Z"/>
  <path class="cls-3" d="m385.58,43.666v100.047h-54.276c-7.264,0-13.173-5.909-13.173-13.173V56.84c0-7.264,5.909-13.173,13.173-13.173h54.276m1-1h-55.276c-7.795,0-14.173,6.378-14.173,14.173v73.701c0,7.795,6.378,14.173,14.173,14.173h55.276V42.666h0Z"/>
  <path class="cls-3" d="m485.013,39.414c9.608,0,17.425,7.817,17.425,17.425v73.701c0,9.608-7.817,17.425-17.425,17.425h-89.709V39.414h89.709m0-1h-90.709v110.551h90.709c10.134,0,18.425-8.291,18.425-18.425V56.84c0-10.134-8.291-18.425-18.425-18.425h0Z"/>
  <path class="cls-3" d="m485.013,43.666c7.264,0,13.173,5.909,13.173,13.173v73.701c0,7.264-5.909,13.173-13.173,13.173h-85.457V43.666h85.457m0-1h-86.457v102.047h86.457c7.795,0,14.173-6.378,14.173-14.173V56.84c0-7.795-6.378-14.173-14.173-14.173h0Z"/>
  <path class="cls-3" d="m354.548,123.579l-17.852-3.468v-7.057c0-3.165,1.99-5.291,4.953-5.291.234,0,.466.012.694.034-1.05-1.195-1.676-2.652-1.676-4.205,0-1.896.966-3.071,2.157-3.582l-1.844-.365v-4.582l2.975.585c-2.022-1.498-3.288-3.924-3.288-6.766,0-2.545,1.295-4.675,3.307-5.584-2.009-.783-3.307-3.002-3.307-5.923,0-2.639,1.222-4.631,3.078-5.214l-2.153-1.884-.959,2.464-3.099-1.685.954-2.478-2.757-.542v-3.475l2.694.53-.864-2.614,3.145-.769.975,3.019,2.565-1.283,1.986,2.895-2.625,1.37,2.585,2.294-1.64,2c.086-.008.174-.013.263-.015l.398-.009.907,3.6c.568-1.682,1.791-2.628,3.448-2.628,3.214,0,5.291,2.606,5.291,6.639,0,2.678-1.126,4.608-2.965,5.263,1.923,1.529,2.965,3.717,2.965,6.292,0,2.263-.959,4.097-2.535,5.146l2.222.437v2.53c0,.755-.309,1.446-.846,1.896-.299.25-.648.412-1.025.479,1.417.976,2.185,2.467,2.185,4.294,0,2.934-2.194,4.906-5.46,4.906-.705,0-1.394-.074-2.056-.212.968,1.268,1.545,2.866,1.545,4.599v2.525l5.657,1.107v4.726Zm-16.852-4.292l15.852,3.08v-2.689l-5.657-1.107v-3.349c0-2.205-1.073-4.154-2.707-5.32-.41-.193-.801-.413-1.169-.656-.729-.311-1.528-.482-2.365-.482-2.401,0-3.953,1.684-3.953,4.291v6.233Zm8.016-10.236c1.104.498,2.364.783,3.689.783,2.709,0,4.46-1.533,4.46-3.906,0-1.792-.912-3.187-2.569-3.925l-.296-.132v-1.402l.996.176c.407.071.784-.019,1.068-.257.31-.259.487-.67.487-1.128v-1.708l-1.831-.36c-.036.26-.139.462-.308.604-.212.178-.498.237-.843.174l-8.585-1.69v2.544l2.552.505v1.355l-.461.036c-1.109.086-2.404.89-2.404,2.872,0,1.878,1.092,3.596,2.781,4.751.445.193.868.43,1.263.707Zm-.952-24.988c-1.865.639-3.092,2.525-3.092,4.821,0,4.203,3.139,7.373,7.301,7.373,2.927,0,4.893-2.054,4.893-5.11,0-2.521-1.14-4.62-3.222-5.963l-1.008,1.984c1.021.678,1.979,2.039,1.979,3.426,0,1.769-1.255,3.004-3.052,3.004-2.473,0-4.642-2.011-4.642-4.304,0-1.4.788-2.529,1.983-2.945l-1.142-2.285Zm.89-.457l1.751,3.504-.712.08c-1.06.118-1.77.963-1.77,2.103,0,1.76,1.702,3.304,3.642,3.304,1.228,0,2.052-.805,2.052-2.004,0-1.157-.956-2.366-1.849-2.77l-.477-.215,1.651-3.25-.807-3.374c-.586,1.636-1.869,2.622-3.481,2.623Zm4.68-1.91l.567,2.374c2.177-.275,2.965-2.45,2.965-4.479,0-3.479-1.645-5.639-4.291-5.639-1.435,0-2.363.924-2.687,2.672l-.386,2.071c-.216,1.172-.868,1.347-1.237,1.347-.987,0-1.703-1-1.703-2.377,0-1.174.58-2.058,1.471-2.334l-.582-2.308c-1.678.261-2.778,1.953-2.778,4.353,0,3.128,1.599,5.23,3.979,5.23,2.02,0,2.586-1.962,2.712-2.563l.433-2.14c.215-1.106.817-1.34,1.285-1.34.847,0,1.752.713,1.752,2.715,0,1.282-.561,2.159-1.499,2.418Zm-1.129-.92h.515c.92,0,1.113-.814,1.113-1.498,0-.854-.232-1.715-.752-1.715-.05,0-.2,0-.304.534l-.435,2.146c-.038.184-.085.361-.138.532Zm-3.554-4.537c-.661,0-1.089.56-1.089,1.426,0,.851.365,1.377.703,1.377.108,0,.206-.266.255-.53l.386-2.071c.013-.068.026-.136.04-.203h-.295Zm-6.863-5.641l1.331.723,1.062-2.736,2.845,2.489.789-.962-2.952-2.618,2.912-1.519-.855-1.246-2.827,1.414-1.047-3.241-1.189.291,1.062,3.212-3.181-.625v1.437l3.118.613-1.067,2.771Zm6.641,47.49l-5.285-1.009v-3.134c0-1.386.908-2.354,2.209-2.354,1.667,0,3.076,1.453,3.076,3.172v3.325Zm-4.285-1.836l3.285.627v-2.116c0-1.157-.97-2.172-2.076-2.172-.734,0-1.209.531-1.209,1.354v2.307Zm7.396-9.15c-2.46,0-4.617-2.033-4.617-4.352,0-1.754,1.313-3.028,3.124-3.028,2.392,0,4.569,2.062,4.569,4.328,0,1.797-1.265,3.052-3.076,3.052Zm-1.493-6.379c-1.271,0-2.124.815-2.124,2.028,0,1.786,1.69,3.352,3.617,3.352,1.261,0,2.076-.805,2.076-2.052,0-1.71-1.734-3.328-3.569-3.328Z"/>
  <rect class="cls-3" x="398.556" y="90.687" width="100.63" height="1"/>
  <g>
    <path class="cls-3" d="m361.786,132.484v-1.612c0-.822.576-1.392,1.349-1.392.744,0,1.355.576,1.355,1.392v.839h1.493v.773h-4.198Zm1.985-1.564c0-.378-.27-.654-.636-.654-.372,0-.635.276-.635.654v.791h1.271v-.791Z"/>
    <path class="cls-3" d="m361.786,128.855v-.779h3.472v-1.853h.726v2.632h-4.198Z"/>
    <path class="cls-3" d="m364.448,125.699h-2.663v-.786h2.657c.534,0,.894-.3.894-.887,0-.546-.36-.899-.9-.899h-2.65v-.774h2.657c.929,0,1.619.678,1.619,1.674,0,1.007-.684,1.673-1.613,1.673Z"/>
    <path class="cls-3" d="m363.885,121.715c-1.229,0-2.177-.918-2.177-2.183,0-.948.474-1.596,1.134-1.913l.372.684c-.438.191-.755.623-.755,1.229,0,.773.582,1.379,1.427,1.379.857,0,1.427-.594,1.427-1.367,0-.624-.378-1.17-.954-1.289v1.247h-.69v-2.045h2.315v.798h-.654v.119c.462.187.732.636.732,1.284,0,1.157-.936,2.057-2.177,2.057Z"/>
    <path class="cls-3" d="m365.882,115.756l-4.096-1.295v-1.302l4.096-1.295h.102v.785l-.864.271v1.781l.864.27v.785h-.102Zm-1.493-2.608l-1.925.605v.126l1.925.6v-1.331Z"/>
    <path class="cls-3" d="m361.786,111.298v-1.444l3.52-1.182v-.103h-3.52v-.761h4.198v1.457l-3.52,1.169v.108h3.52v.755h-4.198Z"/>
    <path class="cls-3" d="m365.282,106.931v-.42h-2.794v.42h-.702v-1.835c0-1.289.948-2.123,2.099-2.123,1.235,0,2.099.834,2.099,2.123v1.835h-.702Zm-.012-1.751c0-.84-.492-1.403-1.385-1.403-.852,0-1.385.563-1.385,1.403v.552h2.771v-.552Z"/>
    <path class="cls-3" d="m363.885,101.242c-1.229,0-2.177-.905-2.177-2.189,0-.947.486-1.606,1.176-1.925l.366.702c-.468.18-.792.63-.792,1.223,0,.774.582,1.386,1.427,1.386.857,0,1.427-.611,1.427-1.386,0-.593-.354-1.127-.954-1.295l.336-.714c.785.271,1.367,1.014,1.367,2.016,0,1.283-.936,2.183-2.177,2.183Z"/>
    <path class="cls-3" d="m361.786,96.328v-1.727c0-.857.498-1.337,1.151-1.337.486,0,.846.275.912.695h.12c.09-.294.372-.66.99-.66h1.025v.786h-.93c-.33,0-.558.204-.558.611v.857h1.487v.773h-4.198Zm1.991-1.619c0-.365-.276-.653-.642-.653-.348,0-.629.258-.629.666v.833h1.271v-.846Z"/>
    <path class="cls-3" d="m361.786,92.398v-2.608h.72v1.835h.989v-1.631h.702v1.631h1.067v-1.9h.72v2.674h-4.198Z"/>
    <path class="cls-3" d="m365.882,89.38l-4.096-1.295v-1.302l4.096-1.295h.102v.785l-.864.271v1.781l.864.27v.785h-.102Zm-1.493-2.608l-1.925.605v.126l1.925.6v-1.331Z"/>
    <path class="cls-3" d="m362.511,84.233v1.301h-.726v-3.394h.726v1.313h3.472v.779h-3.472Z"/>
    <path class="cls-3" d="m361.786,81.448v-2.608h.72v1.835h.989v-1.631h.702v1.631h1.067v-1.9h.72v2.674h-4.198Z"/>
    <path class="cls-3" d="m364.88,76.949l-.216-.72c.396-.078.672-.408.672-.912,0-.516-.234-.81-.552-.81-.288,0-.444.21-.522.522l-.15.636c-.138.558-.468,1.109-1.211,1.109-.635,0-1.193-.546-1.193-1.464,0-.785.402-1.367,1.056-1.505l.204.726c-.294.06-.552.317-.552.779,0,.45.234.689.485.689.276,0,.402-.222.48-.521l.156-.636c.18-.713.582-1.121,1.248-1.121.678,0,1.277.563,1.277,1.595,0,.906-.486,1.487-1.182,1.632Z"/>
    <path class="cls-3" d="m364.22,70.356v1.799h1.763v.779h-4.198v-.779h1.691v-1.799h-1.691v-.779h4.198v.779h-1.763Z"/>
    <path class="cls-3" d="m365.258,68.705v-.804h-2.752v.804h-.72v-2.387h.72v.804h2.752v-.804h.726v2.387h-.726Z"/>
    <path class="cls-3" d="m361.786,65.447v-2.608h.72v1.835h.989v-1.631h.702v1.631h1.067v-1.9h.72v2.674h-4.198Z"/>
    <path class="cls-3" d="m361.786,62.009v-.779h3.472v-1.853h.726v2.632h-4.198Z"/>
    <path class="cls-3" d="m365.282,58.854v-.42h-2.794v.42h-.702v-1.835c0-1.289.948-2.123,2.099-2.123,1.235,0,2.099.834,2.099,2.123v1.835h-.702Zm-.012-1.751c0-.84-.492-1.403-1.385-1.403-.852,0-1.385.563-1.385,1.403v.552h2.771v-.552Z"/>
  </g>
  <g>
    <path class="cls-3" d="m410.565,63.152h6.094v1.682h-4.286v2.311h3.81v1.64h-3.81v2.493h4.439v1.681h-6.247v-9.806Z"/>
    <path class="cls-3" d="m417.816,69.33c0-2.186,1.611-3.811,3.853-3.811,1.639,0,2.886.812,3.432,2.199l-1.513.785c-.252-.799-.98-1.387-1.919-1.387-1.19,0-2.073.91-2.073,2.213,0,1.358.896,2.213,2.073,2.213.882,0,1.667-.49,1.961-1.414l1.541.728c-.532,1.457-1.877,2.283-3.502,2.283-2.256,0-3.853-1.61-3.853-3.81Z"/>
    <path class="cls-3" d="m425.908,69.33c0-2.199,1.64-3.811,3.895-3.811,2.157,0,3.894,1.611,3.894,3.811,0,2.213-1.736,3.81-3.894,3.81-2.255,0-3.895-1.597-3.895-3.81Zm3.895,2.213c1.19,0,2.115-.854,2.115-2.213,0-1.303-.925-2.213-2.115-2.213s-2.115.91-2.115,2.213c0,1.358.925,2.213,2.115,2.213Z"/>
    <path class="cls-3" d="m434.589,68.056c0-2.872,2.115-5.085,5.112-5.085,2.214,0,3.754,1.135,4.497,2.745l-1.64.854c-.42-1.093-1.471-1.849-2.857-1.849-1.807,0-3.235,1.358-3.235,3.334,0,2.003,1.429,3.333,3.235,3.333,1.387,0,2.634-.826,3.025-2.227l1.667.784c-.63,1.835-2.367,3.193-4.706,3.193-2.998,0-5.099-2.185-5.099-5.084Z"/>
    <path class="cls-3" d="m445.494,70.801c0-1.345,1.037-2.27,2.689-2.27h2.046v-.182c0-.771-.561-1.345-1.443-1.345-.896,0-1.316.574-1.414,1.051l-1.556-.435c.364-1.331,1.471-2.102,2.97-2.102,2.087,0,3.152,1.401,3.152,2.83v2.871c0,.253.14.337.363.337h.225v1.4h-1.022c-.715,0-1.135-.448-1.135-1.093v-.322h-.28c-.14.995-.924,1.597-2.087,1.597-1.4,0-2.508-.91-2.508-2.339Zm2.942.91c1.246,0,1.793-.784,1.793-1.694v-.183h-1.821c-.673,0-1.148.295-1.148.925,0,.561.49.952,1.177.952Z"/>
    <path class="cls-3" d="m453.32,70.927l1.568-.406c.168.771.812,1.121,1.569,1.121.952,0,1.372-.379,1.372-.799,0-.364-.224-.63-.826-.742l-1.316-.267c-.995-.182-1.989-.798-1.989-2.115,0-1.204,1.078-2.199,2.871-2.199,1.569,0,2.704.827,2.984,2.102l-1.527.406c-.112-.603-.672-1.064-1.457-1.064-.77,0-1.176.364-1.176.756,0,.379.294.589.826.701l1.232.237c1.387.267,2.102,1.009,2.102,2.186,0,1.387-1.191,2.297-3.11,2.297-1.652,0-2.815-.826-3.123-2.213Z"/>
    <path class="cls-3" d="m460.558,69.302c0-2.185,1.513-3.782,3.698-3.782s3.516,1.682,3.488,3.517l-.015.882h-5.448c.195,1.093.966,1.695,2.017,1.695.771,0,1.442-.406,1.751-.896l1.274.868c-.602.925-1.61,1.555-3.025,1.555-2.144,0-3.74-1.54-3.74-3.838Zm5.491-.798c-.042-.799-.771-1.541-1.793-1.541-.994,0-1.695.588-1.933,1.541h3.726Z"/>
    <path class="cls-3" d="m474.041,65.647h-.28c-.084,1.26-1.008,1.919-2.143,1.919v-1.892c1.219,0,2.283-.504,2.283-1.61v-.21h1.933v9.104h-1.793v-7.312Z"/>
    <path class="cls-3" d="m477.526,70.857h2.003v2.102h-2.003v-2.102Z"/>
    <path class="cls-3" d="m480.872,69.876v-2.941c0-2.171,1.765-3.264,3.362-3.264s3.361,1.093,3.361,3.264v2.941c0,2.172-1.765,3.264-3.361,3.264s-3.362-1.092-3.362-3.264Zm3.362,1.541c.91,0,1.583-.672,1.583-1.61v-2.802c0-.938-.687-1.611-1.583-1.611-.911,0-1.583.673-1.583,1.611v2.802c0,.938.672,1.61,1.583,1.61Z"/>
  </g>
  <rect class="cls-3" x="398.638" y="108.423" width="100.63" height="1"/>
  <g id="BLENDE_A-2" data-name="BLENDE_A">
    <g id="BOARD-CUTOUT-MASTER-NEW-2" data-name="BOARD-CUTOUT-MASTER-NEW">
      <path class="cls-2" d="m710.291,82.258h103.472c2.345,0,4.249,1.904,4.249,4.249v9.219c0,2.345-1.903,4.248-4.248,4.248h-103.472c-2.345,0-4.248-1.903-4.248-4.248v-9.22c0-2.345,1.903-4.248,4.248-4.248Z" transform="translate(853.143 -670.911) rotate(90)"/>
      <path class="cls-2" d="m631.041,82.258h103.471c2.345,0,4.249,1.904,4.249,4.249v9.219c0,2.345-1.903,4.248-4.248,4.248h-103.472c-2.345,0-4.248-1.903-4.248-4.248v-9.219c0-2.345,1.904-4.249,4.249-4.249Z" transform="translate(773.893 -591.661) rotate(90)"/>
      <rect class="cls-2" x="608.53" y="33.862" width="50.865" height="76.401" rx="4.252" ry="4.252" transform="translate(706.025 -561.9) rotate(90)"/>
      <path class="cls-2" d="m602.476,152.11c-.74,0-1.436-.285-1.961-.805l-3.057-3.027c-.529-.523-.82-1.221-.82-1.962v-23.411c0-.743.292-1.44.821-1.963l3.442-3.408c.524-.518,1.218-.804,1.955-.806l23.024-.052c.747,0,1.443.286,1.968.805l3.403,3.37c.529.524.82,1.221.82,1.962v23.411c0,.731-.299,1.447-.821,1.963l-3.147,3.116c-.527.521-1.223.806-1.962.806h-23.664Z"/>
      <path class="cls-2" d="m638.556,152.11c-.74,0-1.436-.285-1.961-.805l-3.057-3.027c-.529-.524-.82-1.222-.82-1.962v-23.411c0-.742.292-1.438.82-1.962l3.443-3.409c.524-.518,1.218-.804,1.955-.806l23.024-.052c.747,0,1.443.286,1.968.805l3.403,3.37c.529.524.82,1.221.82,1.962v23.411c0,.731-.299,1.447-.821,1.963l-3.147,3.116c-.526.521-1.222.806-1.962.806h-23.665Z"/>
    </g>
  </g>
  <g>
    <path class="cls-2" d="m.146,233.676h11.197v8.362c0,.078.064.142.142.142h21.26c.078,0,.141-.064.141-.142v-8.362h16.725v8.362c0,.078.063.142.142.142h21.259c.079,0,.142-.064.142-.142v-8.362h11.055v8.362c0,.078.064.142.142.142h52.862c.078,0,.141-.064.141-.142v-8.362h12.473v8.362c0,.078.063.142.141.142h21.26c.079,0,.142-.064.142-.142v-8.362h16.724v8.362c0,.078.064.142.142.142h21.26c.078,0,.142-.064.142-.142v-8.362h12.472v8.362c0,.078.064.142.142.142h52.861c.079,0,.142-.064.142-.142v-8.362h13.89v8.362c0,.078.063.142.142.142h21.26c.078,0,.141-.064.141-.142v-8.362h16.725v8.362c0,.078.063.142.141.142h21.26c.079,0,.142-.064.142-.142v-8.362h16.724v8.362c0,.078.064.142.142.142h21.26c.078,0,.142-.064.142-.142v-8.362h16.724v8.362c0,.078.064.142.142.142h21.26c.078,0,.141-.064.141-.142v-8.362h13.89v8.362c0,.078.064.142.142.142h52.861c.079,0,.142-.064.142-.142v-8.362h12.473v8.362c0,.078.063.142.141.142h21.26c.078,0,.142-.064.142-.142v-8.362h16.724v8.362c0,.078.064.142.142.142h21.26c.078,0,.142-.064.142-.142v-8.362h12.472v8.362c0,.078.064.142.142.142h52.861c.079,0,.142-.064.142-.142v-8.362h11.055v8.362c0,.078.064.142.142.142h21.26c.078,0,.141-.064.141-.142v-8.362h16.725v8.362c0,.078.063.142.142.142h21.259c.079,0,.142-.064.142-.142v-8.362h11.197c.078,0,.142-.064.142-.142v-28.346c0-.079-.064-.142-.142-.142h-11.197v-8.362c0-.079-.063-.142-.142-.142h-21.259c-.079,0-.142.063-.142.142v8.362h-16.725v-8.362c0-.079-.063-.142-.141-.142h-21.26c-.078,0-.142.063-.142.142v8.362h-11.055v-8.362c0-.079-.063-.142-.142-.142h-52.861c-.078,0-.142.063-.142.142v8.362h-12.472v-8.362c0-.079-.064-.142-.142-.142h-21.26c-.078,0-.142.063-.142.142v8.362h-16.724v-8.362c0-.079-.064-.142-.142-.142h-21.26c-.078,0-.141.063-.141.142v8.362h-12.473v-8.362c0-.079-.063-.142-.142-.142h-52.861c-.078,0-.142.063-.142.142v8.362h-13.89v-8.362c0-.079-.063-.142-.141-.142h-21.26c-.078,0-.142.063-.142.142v8.362h-16.724v-8.362c0-.079-.064-.142-.142-.142h-21.26c-.078,0-.142.063-.142.142v8.362h-16.724v-8.362c0-.079-.063-.142-.142-.142h-21.26c-.078,0-.141.063-.141.142v8.362h-16.725v-8.362c0-.079-.063-.142-.141-.142h-21.26c-.079,0-.142.063-.142.142v8.362h-13.89v-8.362c0-.079-.063-.142-.142-.142h-52.861c-.078,0-.142.063-.142.142v8.362h-12.472v-8.362c0-.079-.064-.142-.142-.142h-21.26c-.078,0-.142.063-.142.142v8.362h-16.724v-8.362c0-.079-.063-.142-.142-.142h-21.26c-.078,0-.141.063-.141.142v8.362h-12.473v-8.362c0-.079-.063-.142-.141-.142h-52.862c-.078,0-.142.063-.142.142v8.362h-11.055v-8.362c0-.079-.063-.142-.142-.142h-21.259c-.079,0-.142.063-.142.142v8.362h-16.725v-8.362c0-.079-.063-.142-.141-.142H11.485c-.078,0-.142.063-.142.142v8.362H.146c-.078,0-.141.063-.141.142v28.346c0,.078.063.142.141.142"/>
    <path class="cls-2" d="m130.042,242.18v-37.134m-4.252-8.504v37.134m-4.252,8.504v-37.134m-4.252-8.504v37.134m-4.252,8.504v-37.134m-4.252-8.504v37.134m-4.252,8.504v-37.134m-4.252-8.504v37.134m-4.252,8.504v-37.134m-4.252-8.504v37.134m-4.252,8.504v-37.134"/>
    <path class="cls-2" d="m267.943,242.18v-37.134m-4.252-8.504v37.134m-4.252,8.504v-37.134m-4.252-8.504v37.134m-4.252,8.504v-37.134m-4.252-8.504v37.134m-4.252,8.504v-37.134m-4.252-8.504v37.134m-4.252,8.504v-37.134m-4.252-8.504v37.134m-4.252,8.504v-37.134"/>
    <path class="cls-2" d="m485.214,242.18v-37.134m-4.252-8.504v37.134m-4.252,8.504v-37.134m-4.252-8.504v37.134m-4.252,8.504v-37.134m-4.252-8.504v37.134m-4.252,8.504v-37.134m-4.252-8.504v37.134m-4.252,8.504v-37.134m-4.252-8.504v37.134m-4.252,8.504v-37.134"/>
    <path class="cls-2" d="m623.114,242.18v-37.134m-4.252-8.504v37.134m-4.252,8.504v-37.134m-4.252-8.504v37.134m-4.251,8.504v-37.134m-4.252-8.504v37.134m-4.252,8.504v-37.134m-4.252-8.504v37.134m-4.252,8.504v-37.134m-4.252-8.504v37.134m-4.252,8.504v-37.134"/>
  </g>
  <path class="cls-3" d="m324.343,228.612l3.468-17.852h7.057c3.165,0,5.291,1.99,5.291,4.953,0,.234-.012.466-.034.694,1.195-1.05,2.652-1.676,4.205-1.676,1.896,0,3.071.966,3.582,2.157l.365-1.844h4.582l-.585,2.975c1.498-2.022,3.924-3.288,6.766-3.288,2.545,0,4.675,1.295,5.584,3.307.783-2.009,3.002-3.307,5.923-3.307,2.639,0,4.631,1.222,5.214,3.078l1.884-2.153-2.464-.959,1.685-3.099,2.478.954.542-2.757h3.475l-.53,2.694,2.614-.864.769,3.145-3.019.975,1.283,2.565-2.895,1.986-1.37-2.625-2.294,2.585-2-1.64c.008.086.013.174.015.263l.009.398-3.6.907c1.682.568,2.628,1.791,2.628,3.448,0,3.214-2.606,5.291-6.639,5.291-2.678,0-4.608-1.126-5.263-2.965-1.529,1.923-3.717,2.965-6.292,2.965-2.263,0-4.097-.959-5.146-2.535l-.437,2.222h-2.53c-.755,0-1.446-.309-1.896-.846-.25-.299-.412-.648-.479-1.025-.976,1.417-2.467,2.185-4.294,2.185-2.934,0-4.906-2.194-4.906-5.46,0-.705.074-1.394.212-2.056-1.268.968-2.866,1.545-4.599,1.545h-2.525l-1.107,5.657h-4.726Zm4.292-16.852l-3.08,15.852h2.689l1.107-5.657h3.349c2.205,0,4.154-1.073,5.32-2.707.193-.41.413-.801.656-1.169.311-.729.482-1.528.482-2.365,0-2.401-1.684-3.953-4.291-3.953h-6.233Zm10.236,8.016c-.498,1.104-.783,2.364-.783,3.689,0,2.709,1.533,4.46,3.906,4.46,1.792,0,3.187-.912,3.925-2.569l.132-.296h1.402l-.176.996c-.071.407.019.784.257,1.068.259.31.67.487,1.128.487h1.708l.36-1.831c-.26-.036-.462-.139-.604-.308-.178-.212-.237-.498-.174-.843l1.69-8.585h-2.544l-.505,2.552h-1.355l-.036-.461c-.086-1.109-.89-2.404-2.872-2.404-1.878,0-3.596,1.092-4.751,2.781-.193.445-.43.868-.707,1.263Zm24.988-.952c-.639-1.865-2.525-3.092-4.821-3.092-4.203,0-7.373,3.139-7.373,7.301,0,2.927,2.054,4.893,5.11,4.893,2.521,0,4.62-1.14,5.963-3.222l-1.984-1.008c-.678,1.021-2.039,1.979-3.426,1.979-1.769,0-3.004-1.255-3.004-3.052,0-2.473,2.011-4.642,4.304-4.642,1.4,0,2.529.788,2.945,1.983l2.285-1.142Zm.457.89l-3.504,1.751-.08-.712c-.118-1.06-.963-1.771-2.103-1.771-1.76,0-3.304,1.702-3.304,3.642,0,1.228.805,2.052,2.004,2.052,1.157,0,2.366-.956,2.77-1.849l.215-.477,3.25,1.651,3.374-.807c-1.636-.586-2.622-1.869-2.623-3.481Zm1.91,4.68l-2.374.567c.275,2.177,2.45,2.965,4.479,2.965,3.479,0,5.639-1.645,5.639-4.291,0-1.435-.924-2.363-2.672-2.687l-2.071-.386c-1.172-.216-1.347-.868-1.347-1.237,0-.987,1-1.703,2.377-1.703,1.174,0,2.058.58,2.334,1.471l2.308-.582c-.261-1.678-1.953-2.778-4.353-2.778-3.128,0-5.23,1.599-5.23,3.979,0,2.02,1.962,2.586,2.563,2.712l2.14.433c1.106.215,1.34.817,1.34,1.285,0,.847-.713,1.752-2.715,1.752-1.282,0-2.159-.561-2.418-1.499Zm.92-1.129v.515c0,.92.814,1.113,1.498,1.113.854,0,1.715-.232,1.715-.752,0-.05,0-.2-.534-.304l-2.146-.435c-.184-.038-.361-.085-.532-.138Zm4.537-3.554c0-.661-.56-1.089-1.426-1.089-.851,0-1.377.365-1.377.703,0,.108.266.206.53.255l2.071.386c.068.013.136.026.203.04v-.295Zm5.641-6.863l-.723,1.331,2.736,1.062-2.489,2.845.962.789,2.618-2.952,1.519,2.912,1.246-.855-1.414-2.827,3.241-1.047-.291-1.189-3.212,1.062.625-3.181h-1.437l-.613,3.118-2.771-1.067Zm-47.49,6.641l1.009-5.285h3.134c1.386,0,2.354.908,2.354,2.209,0,1.667-1.453,3.076-3.172,3.076h-3.325Zm1.836-4.285l-.627,3.285h2.116c1.157,0,2.172-.97,2.172-2.076,0-.734-.531-1.209-1.354-1.209h-2.307Zm9.15,7.396c0-2.46,2.033-4.617,4.352-4.617,1.754,0,3.028,1.313,3.028,3.124,0,2.392-2.062,4.569-4.328,4.569-1.797,0-3.052-1.265-3.052-3.076Zm6.379-1.493c0-1.271-.815-2.124-2.028-2.124-1.786,0-3.352,1.69-3.352,3.617,0,1.261.805,2.076,2.052,2.076,1.71,0,3.328-1.734,3.328-3.569Z"/>
  <g>
    <path class="cls-3" d="m494.615,215.103h6.094v1.682h-4.286v2.311h3.81v1.64h-3.81v2.493h4.439v1.681h-6.247v-9.806Z"/>
    <path class="cls-3" d="m501.867,221.281c0-2.186,1.611-3.811,3.853-3.811,1.639,0,2.886.812,3.432,2.199l-1.513.785c-.252-.799-.98-1.387-1.919-1.387-1.19,0-2.073.91-2.073,2.213,0,1.358.896,2.213,2.073,2.213.882,0,1.667-.49,1.961-1.414l1.541.728c-.532,1.457-1.877,2.283-3.502,2.283-2.256,0-3.853-1.61-3.853-3.81Z"/>
    <path class="cls-3" d="m509.959,221.281c0-2.199,1.64-3.811,3.895-3.811,2.157,0,3.894,1.611,3.894,3.811,0,2.213-1.736,3.81-3.894,3.81-2.255,0-3.895-1.597-3.895-3.81Zm3.895,2.213c1.19,0,2.115-.854,2.115-2.213,0-1.303-.925-2.213-2.115-2.213s-2.115.91-2.115,2.213c0,1.358.925,2.213,2.115,2.213Z"/>
    <path class="cls-3" d="m518.64,220.006c0-2.872,2.115-5.085,5.112-5.085,2.214,0,3.754,1.135,4.497,2.745l-1.64.854c-.42-1.093-1.471-1.849-2.857-1.849-1.807,0-3.235,1.358-3.235,3.334,0,2.003,1.429,3.333,3.235,3.333,1.387,0,2.634-.826,3.025-2.227l1.667.784c-.63,1.835-2.367,3.193-4.706,3.193-2.998,0-5.099-2.185-5.099-5.084Z"/>
    <path class="cls-3" d="m529.545,222.752c0-1.345,1.037-2.27,2.689-2.27h2.046v-.182c0-.771-.561-1.345-1.443-1.345-.896,0-1.316.574-1.414,1.051l-1.556-.435c.364-1.331,1.471-2.102,2.97-2.102,2.087,0,3.152,1.401,3.152,2.83v2.871c0,.253.14.337.363.337h.225v1.4h-1.022c-.715,0-1.135-.448-1.135-1.093v-.322h-.28c-.14.995-.924,1.597-2.087,1.597-1.4,0-2.508-.91-2.508-2.339Zm2.942.91c1.246,0,1.793-.784,1.793-1.694v-.183h-1.821c-.673,0-1.148.295-1.148.925,0,.561.49.952,1.177.952Z"/>
    <path class="cls-3" d="m537.371,222.878l1.568-.406c.168.771.812,1.121,1.569,1.121.952,0,1.372-.379,1.372-.799,0-.364-.224-.63-.826-.742l-1.316-.267c-.995-.182-1.989-.798-1.989-2.115,0-1.204,1.078-2.199,2.871-2.199,1.569,0,2.704.827,2.984,2.102l-1.527.406c-.112-.603-.672-1.064-1.457-1.064-.77,0-1.176.364-1.176.756,0,.379.294.589.826.701l1.232.237c1.387.267,2.102,1.009,2.102,2.186,0,1.387-1.191,2.297-3.11,2.297-1.652,0-2.815-.826-3.123-2.213Z"/>
    <path class="cls-3" d="m544.608,221.253c0-2.185,1.513-3.782,3.698-3.782s3.516,1.682,3.488,3.517l-.015.882h-5.448c.195,1.093.966,1.695,2.017,1.695.771,0,1.442-.406,1.751-.896l1.274.868c-.602.925-1.61,1.555-3.025,1.555-2.144,0-3.74-1.54-3.74-3.838Zm5.491-.798c-.042-.799-.771-1.541-1.793-1.541-.994,0-1.695.588-1.933,1.541h3.726Z"/>
    <path class="cls-3" d="m558.092,217.597h-.28c-.084,1.26-1.008,1.919-2.143,1.919v-1.892c1.219,0,2.283-.504,2.283-1.61v-.21h1.933v9.104h-1.793v-7.312Z"/>
    <path class="cls-3" d="m561.577,222.807h2.003v2.102h-2.003v-2.102Z"/>
    <path class="cls-3" d="m564.923,221.827v-2.941c0-2.171,1.765-3.264,3.362-3.264s3.361,1.093,3.361,3.264v2.941c0,2.172-1.765,3.264-3.361,3.264s-3.362-1.092-3.362-3.264Zm3.362,1.541c.91,0,1.583-.672,1.583-1.61v-2.802c0-.938-.687-1.611-1.583-1.611-.911,0-1.583.673-1.583,1.611v2.802c0,.938.672,1.61,1.583,1.61Z"/>
  </g>
  <g>
    <path class="cls-3" d="m139.102,215.103h6.094v1.682h-4.286v2.311h3.81v1.64h-3.81v2.493h4.439v1.681h-6.247v-9.806Z"/>
    <path class="cls-3" d="m146.354,221.281c0-2.186,1.611-3.811,3.853-3.811,1.639,0,2.886.812,3.432,2.199l-1.513.785c-.252-.799-.98-1.387-1.919-1.387-1.19,0-2.073.91-2.073,2.213,0,1.358.896,2.213,2.073,2.213.882,0,1.667-.49,1.961-1.414l1.541.728c-.532,1.457-1.877,2.283-3.502,2.283-2.256,0-3.853-1.61-3.853-3.81Z"/>
    <path class="cls-3" d="m154.445,221.281c0-2.199,1.64-3.811,3.895-3.811,2.157,0,3.894,1.611,3.894,3.811,0,2.213-1.736,3.81-3.894,3.81-2.255,0-3.895-1.597-3.895-3.81Zm3.895,2.213c1.19,0,2.115-.854,2.115-2.213,0-1.303-.925-2.213-2.115-2.213s-2.115.91-2.115,2.213c0,1.358.925,2.213,2.115,2.213Z"/>
    <path class="cls-3" d="m163.126,220.006c0-2.872,2.115-5.085,5.112-5.085,2.214,0,3.754,1.135,4.497,2.745l-1.64.854c-.42-1.093-1.471-1.849-2.857-1.849-1.807,0-3.235,1.358-3.235,3.334,0,2.003,1.429,3.333,3.235,3.333,1.387,0,2.634-.826,3.025-2.227l1.667.784c-.63,1.835-2.367,3.193-4.706,3.193-2.998,0-5.099-2.185-5.099-5.084Z"/>
    <path class="cls-3" d="m174.031,222.752c0-1.345,1.037-2.27,2.689-2.27h2.046v-.182c0-.771-.561-1.345-1.443-1.345-.896,0-1.316.574-1.414,1.051l-1.556-.435c.364-1.331,1.471-2.102,2.97-2.102,2.087,0,3.152,1.401,3.152,2.83v2.871c0,.253.14.337.363.337h.225v1.4h-1.022c-.715,0-1.135-.448-1.135-1.093v-.322h-.28c-.14.995-.924,1.597-2.087,1.597-1.4,0-2.508-.91-2.508-2.339Zm2.942.91c1.246,0,1.793-.784,1.793-1.694v-.183h-1.821c-.673,0-1.148.295-1.148.925,0,.561.49.952,1.177.952Z"/>
    <path class="cls-3" d="m181.858,222.878l1.568-.406c.168.771.812,1.121,1.569,1.121.952,0,1.372-.379,1.372-.799,0-.364-.224-.63-.826-.742l-1.316-.267c-.995-.182-1.989-.798-1.989-2.115,0-1.204,1.078-2.199,2.871-2.199,1.569,0,2.704.827,2.984,2.102l-1.527.406c-.112-.603-.672-1.064-1.457-1.064-.77,0-1.176.364-1.176.756,0,.379.294.589.826.701l1.232.237c1.387.267,2.102,1.009,2.102,2.186,0,1.387-1.191,2.297-3.11,2.297-1.652,0-2.815-.826-3.123-2.213Z"/>
    <path class="cls-3" d="m189.095,221.253c0-2.185,1.513-3.782,3.698-3.782s3.516,1.682,3.488,3.517l-.015.882h-5.448c.195,1.093.966,1.695,2.017,1.695.771,0,1.442-.406,1.751-.896l1.274.868c-.602.925-1.61,1.555-3.025,1.555-2.144,0-3.74-1.54-3.74-3.838Zm5.491-.798c-.042-.799-.771-1.541-1.793-1.541-.994,0-1.695.588-1.933,1.541h3.726Z"/>
    <path class="cls-3" d="m202.578,217.597h-.28c-.084,1.26-1.008,1.919-2.143,1.919v-1.892c1.219,0,2.283-.504,2.283-1.61v-.21h1.933v9.104h-1.793v-7.312Z"/>
    <path class="cls-3" d="m206.064,222.807h2.003v2.102h-2.003v-2.102Z"/>
    <path class="cls-3" d="m209.409,221.827v-2.941c0-2.171,1.765-3.264,3.362-3.264s3.361,1.093,3.361,3.264v2.941c0,2.172-1.765,3.264-3.361,3.264s-3.362-1.092-3.362-3.264Zm3.362,1.541c.91,0,1.583-.672,1.583-1.61v-2.802c0-.938-.687-1.611-1.583-1.611-.911,0-1.583.673-1.583,1.611v2.802c0,.938.672,1.61,1.583,1.61Z"/>
  </g>
  <g>
    <path class="cls-3" d="m403.546,97.08h2.447c1.216,0,1.896.705,1.896,1.632,0,.688-.391,1.198-.986,1.292v.17c.417.127.936.526.936,1.402v1.453h-1.113v-1.317c0-.468-.289-.79-.867-.79h-1.216v2.107h-1.096v-5.949Zm2.295,2.821c.518,0,.926-.391.926-.909,0-.493-.365-.893-.943-.893h-1.182v1.802h1.199Z"/>
    <path class="cls-3" d="m408.878,100.055c0-1.742,1.301-3.085,3.103-3.085,1.818,0,3.11,1.359,3.11,3.085,0,1.742-1.301,3.085-3.119,3.085-1.802,0-3.094-1.326-3.094-3.085Zm3.103,2.022c1.088,0,1.972-.808,1.972-2.022,0-1.198-.884-2.022-1.972-2.022s-1.964.824-1.964,2.022c0,1.215.876,2.022,1.964,2.022Z"/>
    <path class="cls-3" d="m416.307,97.08h1.104v4.921h2.626v1.028h-3.73v-5.949Z"/>
    <path class="cls-3" d="m420.686,102.885l1.836-5.805h1.845l1.836,5.805v.145h-1.113l-.383-1.224h-2.524l-.382,1.224h-1.114v-.145Zm3.697-2.116l-.858-2.729h-.178l-.851,2.729h1.887Z"/>
    <path class="cls-3" d="m427.124,97.08h2.048l1.675,4.989h.145v-4.989h1.079v5.949h-2.065l-1.657-4.989h-.153v4.989h-1.07v-5.949Z"/>
    <path class="cls-3" d="m433.46,102.035h.595v-3.961h-.595v-.994h2.601c1.827,0,3.009,1.343,3.009,2.975,0,1.751-1.182,2.975-3.009,2.975h-2.601v-.994Zm2.481-.018c1.189,0,1.989-.696,1.989-1.963,0-1.207-.8-1.964-1.989-1.964h-.782v3.927h.782Z"/>
    <path class="cls-3" d="m443.311,98.04h-.17v4.989h-1.07v-5.949h2.142l1.028,4.989h.161l1.054-4.989h2.143v5.949h-1.071v-4.989h-.17l-1.028,4.989h-1.989l-1.028-4.989Z"/>
    <path class="cls-3" d="m449.527,102.885l1.836-5.805h1.845l1.836,5.805v.145h-1.113l-.383-1.224h-2.524l-.382,1.224h-1.114v-.145Zm3.697-2.116l-.858-2.729h-.178l-.851,2.729h1.887Z"/>
    <path class="cls-3" d="m455.966,97.08h2.447c1.216,0,1.896.705,1.896,1.632,0,.688-.391,1.198-.986,1.292v.17c.417.127.936.526.936,1.402v1.453h-1.113v-1.317c0-.468-.289-.79-.867-.79h-1.216v2.107h-1.096v-5.949Zm2.295,2.821c.518,0,.926-.391.926-.909,0-.493-.365-.893-.943-.893h-1.182v1.802h1.199Z"/>
    <path class="cls-3" d="m461.436,102.001h1.14v-3.901h-1.14v-1.02h3.383v1.02h-1.139v3.901h1.139v1.028h-3.383v-1.028Z"/>
    <path class="cls-3" d="m465.651,102.885l1.836-5.805h1.845l1.836,5.805v.145h-1.113l-.383-1.224h-2.524l-.382,1.224h-1.114v-.145Zm3.697-2.116l-.858-2.729h-.178l-.851,2.729h1.887Z"/>
    <path class="cls-3" d="m471.646,100.055c0-1.742,1.283-3.085,3.103-3.085,1.343,0,2.277.688,2.728,1.665l-.994.519c-.255-.662-.893-1.121-1.733-1.121-1.097,0-1.964.824-1.964,2.022,0,1.215.867,2.022,1.964,2.022.841,0,1.598-.501,1.836-1.352l1.011.477c-.382,1.113-1.437,1.938-2.855,1.938-1.819,0-3.094-1.326-3.094-3.085Z"/>
    <path class="cls-3" d="m482.375,100.53h-2.55v2.499h-1.104v-5.949h1.104v2.396h2.55v-2.396h1.104v5.949h-1.104v-2.499Z"/>
    <path class="cls-3" d="m485.055,97.08h3.697v1.02h-2.602v1.402h2.312v.994h-2.312v1.514h2.694v1.02h-3.79v-5.949Z"/>
    <path class="cls-3" d="m490.132,97.08h2.447c1.216,0,1.896.705,1.896,1.632,0,.688-.391,1.198-.986,1.292v.17c.417.127.936.526.936,1.402v1.453h-1.113v-1.317c0-.468-.289-.79-.867-.79h-1.216v2.107h-1.096v-5.949Zm2.295,2.821c.518,0,.926-.391.926-.909,0-.493-.365-.893-.943-.893h-1.182v1.802h1.199Z"/>
  </g>
  <g>
    <path class="cls-3" d="m403.63,119.743h1.14v-3.901h-1.14v-1.02h3.383v1.02h-1.139v3.901h1.139v1.028h-3.383v-1.028Z"/>
    <path class="cls-3" d="m408.171,119.777h.595v-3.961h-.595v-.994h2.601c1.827,0,3.009,1.343,3.009,2.975,0,1.751-1.182,2.975-3.009,2.975h-2.601v-.994Zm2.481-.018c1.189,0,1.989-.696,1.989-1.963,0-1.207-.8-1.964-1.989-1.964h-.782v3.927h.782Z"/>
    <path class="cls-3" d="m414.995,114.822h1.096v2.55h.17l2.176-2.55h1.232v.145l-1.912,2.227,2.006,3.434v.145h-1.224l-1.547-2.694-.901,1.054v1.641h-1.096v-5.949Z"/>
    <path class="cls-3" d="m422.152,118.57c0-1.955,1.471-3.459,3.553-3.459,2.022,0,3.45,1.377,3.45,3.204,0,1.104-.577,1.929-1.555,1.929-.629,0-.986-.288-1.097-.688h-.17c-.094.349-.425.688-1.003.688-.799,0-1.487-.629-1.487-1.674,0-1.012.68-1.675,1.471-1.675.569,0,.918.357.977.663h.171v-.611h.815v2.176c0,.229.136.374.374.374.374,0,.62-.459.62-1.182,0-1.368-.985-2.32-2.566-2.32-1.572,0-2.618,1.088-2.618,2.575,0,1.641,1.19,2.626,2.678,2.626.705,0,1.359-.152,1.818-.382l.213.824c-.383.195-1.113.425-2.031.425-1.946,0-3.612-1.335-3.612-3.493Zm3.459.927c.484,0,.867-.349.876-.927,0-.562-.392-.918-.876-.918-.45,0-.867.331-.867.918s.434.927.867.927Z"/>
    <path class="cls-3" d="m432.157,114.822h3.697v1.02h-2.602v1.564h2.312v1.011h-2.312v2.354h-1.096v-5.949Z"/>
    <path class="cls-3" d="m440.613,118.272h-2.55v2.499h-1.104v-5.949h1.104v2.396h2.55v-2.396h1.104v5.949h-1.104v-2.499Z"/>
    <path class="cls-3" d="m444.592,119.555l.901-.526c.179.484.604.79,1.104.79.731,0,1.165-.476,1.165-1.122v-2.855h-1.998v-1.02h3.094v3.875c0,1.267-.79,2.185-2.261,2.185-1.003,0-1.725-.604-2.006-1.326Z"/>
    <path class="cls-3" d="m449.974,117.796c0-1.742,1.301-3.085,3.103-3.085,1.818,0,3.11,1.359,3.11,3.085,0,1.742-1.301,3.085-3.119,3.085-1.802,0-3.094-1.326-3.094-3.085Zm3.103,2.022c1.088,0,1.972-.808,1.972-2.022,0-1.198-.884-2.022-1.972-2.022s-1.964.824-1.964,2.022c0,1.215.876,2.022,1.964,2.022Z"/>
    <path class="cls-3" d="m456.637,120.626l1.836-5.805h1.845l1.836,5.805v.145h-1.113l-.383-1.224h-2.524l-.382,1.224h-1.114v-.145Zm3.697-2.116l-.858-2.729h-.178l-.851,2.729h1.887Z"/>
    <path class="cls-3" d="m463.076,114.822h2.048l1.675,4.989h.145v-4.989h1.079v5.949h-2.065l-1.657-4.989h-.153v4.989h-1.07v-5.949Z"/>
    <path class="cls-3" d="m469.591,114.822h2.048l1.675,4.989h.145v-4.989h1.079v5.949h-2.065l-1.657-4.989h-.153v4.989h-1.07v-5.949Z"/>
    <path class="cls-3" d="m476.106,114.822h3.697v1.02h-2.602v1.402h2.312v.994h-2.312v1.514h2.694v1.02h-3.79v-5.949Z"/>
    <path class="cls-3" d="m481.042,118.595v-3.773h1.113v3.765c0,.757.425,1.267,1.258,1.267.773,0,1.274-.51,1.274-1.274v-3.757h1.097v3.765c0,1.317-.96,2.295-2.371,2.295-1.428,0-2.371-.969-2.371-2.286Z"/>
    <path class="cls-3" d="m488.525,115.782h-.17v4.989h-1.07v-5.949h2.142l1.028,4.989h.161l1.054-4.989h2.143v5.949h-1.071v-4.989h-.17l-1.028,4.989h-1.989l-1.028-4.989Z"/>
  </g>
  <rect class="cls-3" x="398.638" y="126.026" width="100.63" height="1"/>
  <g>
    <path class="cls-3" d="m403.494,136.364l2.167-1.25c.374-.212.553-.51.553-.799,0-.349-.264-.781-.858-.781-.578,0-.893.433-.927.858l-.935-.426c.119-.781.799-1.47,1.861-1.47,1.301,0,1.963.9,1.963,1.768,0,.757-.373,1.309-1.189,1.726l-1.666.952v.17h2.873v1.02h-3.842v-1.768Z"/>
    <path class="cls-3" d="m408.393,136.262v-1.784c0-1.317,1.071-1.98,2.04-1.98s2.04.663,2.04,1.98v1.784c0,1.317-1.071,1.98-2.04,1.98s-2.04-.663-2.04-1.98Zm2.04.936c.553,0,.96-.408.96-.978v-1.7c0-.569-.416-.978-.96-.978-.553,0-.961.408-.961.978v1.7c0,.569.408.978.961.978Z"/>
    <path class="cls-3" d="m413.527,136.364l2.167-1.25c.374-.212.553-.51.553-.799,0-.349-.264-.781-.858-.781-.578,0-.893.433-.927.858l-.935-.426c.119-.781.799-1.47,1.861-1.47,1.301,0,1.963.9,1.963,1.768,0,.757-.373,1.309-1.189,1.726l-1.666.952v.17h2.873v1.02h-3.842v-1.768Z"/>
    <path class="cls-3" d="m418.282,136.823l.943-.417c.094.374.399.791,1.028.791.604,0,.918-.323.918-.766,0-.356-.289-.688-.85-.688h-.468v-.943h.434c.51,0,.757-.306.757-.611,0-.323-.256-.654-.825-.654-.552,0-.858.416-.9.841l-.961-.408c.119-.79.808-1.47,1.913-1.47,1.224,0,1.869.696,1.869,1.402,0,.519-.382.969-.985.978v.17c.637.127,1.122.705,1.122,1.385,0,.97-.638,1.802-2.023,1.802-1.045,0-1.802-.595-1.972-1.41Z"/>
    <path class="cls-3" d="m423.383,135.217h2.456v.884h-2.456v-.884Z"/>
    <path class="cls-3" d="m428.148,133.695h-.17c-.052.765-.612,1.164-1.301,1.164v-1.147c.739,0,1.386-.306,1.386-.977v-.128h1.173v5.524h-1.088v-4.437Z"/>
    <path class="cls-3" d="m430.524,136.364l2.167-1.25c.374-.212.553-.51.553-.799,0-.349-.264-.781-.858-.781-.578,0-.893.433-.927.858l-.935-.426c.119-.781.799-1.47,1.861-1.47,1.301,0,1.963.9,1.963,1.768,0,.757-.373,1.309-1.189,1.726l-1.666.952v.17h2.873v1.02h-3.842v-1.768Z"/>
    <path class="cls-3" d="m435.347,135.217h2.457v.884h-2.457v-.884Z"/>
    <path class="cls-3" d="m440.111,133.695h-.17c-.052.765-.612,1.164-1.301,1.164v-1.147c.739,0,1.386-.306,1.386-.977v-.128h1.173v5.524h-1.088v-4.437Z"/>
    <path class="cls-3" d="m442.487,136.364l2.167-1.25c.374-.212.553-.51.553-.799,0-.349-.264-.781-.858-.781-.578,0-.893.433-.927.858l-.935-.426c.119-.781.799-1.47,1.861-1.47,1.301,0,1.963.9,1.963,1.768,0,.757-.373,1.309-1.189,1.726l-1.666.952v.17h2.873v1.02h-3.842v-1.768Z"/>
  </g>
  <path class="cls-2" d="m834.313,61.504c0-.74.285-1.436.805-1.961l3.027-3.057c.523-.529,1.221-.82,1.962-.82h23.411c.743,0,1.44.292,1.963.821l3.408,3.442c.518.524.804,1.218.806,1.955l.052,23.024c0,.747-.286,1.443-.805,1.968l-3.37,3.403c-.524.529-1.221.82-1.962.82h-23.411c-.731,0-1.447-.299-1.963-.821l-3.116-3.147c-.521-.527-.806-1.223-.806-1.962v-23.664Z"/>
  <path class="cls-2" d="m834.313,101.836c0-.74.285-1.436.805-1.961l3.027-3.057c.524-.529,1.222-.82,1.962-.82h23.411c.742,0,1.438.292,1.962.82l3.409,3.443c.518.524.804,1.218.806,1.955l.052,23.024c0,.747-.286,1.443-.805,1.968l-3.37,3.403c-.524.529-1.221.82-1.962.82h-23.411c-.731,0-1.447-.299-1.963-.821l-3.116-3.147c-.521-.526-.806-1.222-.806-1.962v-23.665Z"/>
</svg>